<svg width="2119" height="661" viewBox="0 0 2119 661" fill="none" xmlns="http://www.w3.org/2000/svg">
<path d="M325.855 334.162C296.011 353.005 264.27 352.349 237.114 338.891C220.99 330.894 206.437 318.351 194.958 302.629C167.247 264.725 185.776 200.749 225.527 174.074C230.607 170.609 236.119 167.792 241.929 165.693C256.32 160.598 269.81 157.808 282.575 157.696C308.275 157.531 330.948 167.998 351.941 191.221C363.329 203.816 376.209 215.129 389.947 226.785C393.87 230.124 397.035 234.231 399.237 238.84C401.439 243.449 402.63 248.458 402.732 253.545C402.835 258.632 401.847 263.684 399.832 268.374C397.817 273.064 394.82 277.29 391.034 280.778L390.738 281.05C369.63 300.584 349.144 319.486 325.855 334.162ZM1032.79 0.646138C944.168 0.646138 855.549 -0.666003 766.971 1.07762C709.223 2.20063 657.467 22.2552 615.383 62.187C588.892 87.2242 563.875 113.822 534.974 142.973C507.087 114.507 482.832 88.1581 456.854 63.5524C414.964 24.0047 363.268 2.82123 305.822 1.33177C212.647 -1.1625 119.346 0.575206 26.1044 0.770255C18.5286 0.770255 11.0012 2.07649 0 3.13449C44.4457 48.6045 95.5006 62.8313 152.845 62.057C199.447 61.466 246.43 58.5698 292.658 63.0559C324.423 66.1708 361.861 72.0281 385.09 90.5874C446.209 139.421 660.886 351.835 670.057 360.919C686.737 377.67 704.565 390.07 723.915 398.227C723.437 398.89 722.906 399.514 722.326 400.095C667.067 454.596 612.254 509.783 553.998 561.111C544.573 569.385 512.168 566.779 501.475 557.251C446.783 508.784 395.148 457.09 343.967 405.018C342.565 403.647 341.29 402.276 340.082 400.881C357.209 394.095 386.431 371.168 386.431 371.168L431.946 327.755L475.787 287.09C475.787 287.09 543.516 354.406 581.945 392.783C584.275 395.108 586.103 397.868 587.319 400.899C588.535 403.931 589.114 407.17 589.021 410.425C588.929 413.68 588.167 416.884 586.781 419.844C585.395 422.804 583.413 425.461 580.954 427.656C571.258 436.303 559.888 446.274 550.198 454.974C545.318 459.358 538.935 461.79 532.31 461.79C525.685 461.79 519.301 459.358 514.421 454.974C508.151 449.353 501.535 443.443 495.331 437.893C493.128 435.925 491.348 433.547 490.095 430.899C488.842 428.251 488.141 425.384 488.033 422.468C487.925 419.551 488.412 416.643 489.466 413.913C490.52 411.183 492.119 408.685 494.171 406.567C505.504 394.84 518.016 382.026 523.773 375.915C507.601 360.157 493.47 346.362 480.669 333.997C460.31 353.224 439.274 373.196 418.413 392.913C416.284 394.926 414.581 397.33 413.403 399.988C412.225 402.646 411.595 405.505 411.549 408.402C411.503 411.298 412.042 414.175 413.135 416.868C414.228 419.56 415.853 422.015 417.918 424.092C450.716 457.09 483.448 490.012 516.826 523.614C519.284 526.087 522.223 528.056 525.469 529.403C528.715 530.75 532.204 531.449 535.73 531.459C539.257 531.469 542.749 530.789 546.004 529.461C549.258 528.132 552.208 526.18 554.681 523.72C589.466 489.114 622.059 456.493 655.244 424.499C667.786 412.353 666.191 403.812 654.096 393.043C628.946 370.5 422.926 165.693 401.534 145.828C364.869 111.694 322.025 89.5294 271.091 94.447C186.929 102.674 113.776 161.845 119.95 262.414C123.514 320.532 158.342 375.217 216.006 398.517C236.248 406.824 257.916 411.304 279.863 411.721C314.817 457.563 360.145 495.994 401.147 537.415C438.392 574.918 476.524 611.605 513.328 649.409C526.824 663.304 537.263 665.858 551.714 650.721C574.568 626.736 599.084 604.193 622.699 580.834C656.192 547.818 690.507 515.493 722.592 481.235C744.752 457.628 769.835 434.955 790.019 409.977C798.081 409.732 806.121 409.01 814.093 407.814C910.675 393.735 978.477 298.125 941.105 198.715C898.134 84.2985 755.523 61.8088 673.331 142.163C650.979 164.085 629.23 186.575 607.179 208.746C576.556 182.024 576.556 182.024 604.509 157.732C616.217 147.518 629.526 138.552 639.331 126.778C665.913 94.8607 699.816 72.2764 740.305 68.4759C802.887 62.6185 866.302 64.5513 929.264 61.5014C952.825 60.3193 976.888 56.8912 999.295 50.0999C1024.67 42.3748 1048.13 29.3597 1065 0.646138H1032.79ZM725.891 180.032C744.733 162.218 772.747 155.208 799.872 158.417V158.482C814.572 160.186 828.704 165.057 841.249 172.744C848.955 177.531 855.86 183.455 861.717 190.305C891.953 226.495 891.259 280.187 866.109 311.081C856.29 323.243 843.595 332.884 829.118 339.174V339.233C801.425 351.445 769.146 350.464 743.235 334.068C730.941 326.295 698.487 298.084 674.884 277.574C671.494 274.627 668.757 271.031 666.842 267.01C664.926 262.988 663.872 258.625 663.745 254.19C663.617 249.755 664.419 245.341 666.101 241.22C667.783 237.1 670.31 233.36 673.525 230.231C690.44 213.781 704.746 200.028 725.854 180.032H725.891Z" fill="#040404"/>
<path d="M1253.64 82.1816L1328.36 195.244V81.1348C1328.36 73.7194 1329.93 68.1797 1333.07 64.5156C1336.3 60.7643 1340.62 58.8887 1346.03 58.8887C1351.61 58.8887 1356.02 60.7643 1359.24 64.5156C1362.47 68.1797 1364.09 73.7194 1364.09 81.1348V232.016C1364.09 248.853 1357.11 257.271 1343.15 257.271C1339.66 257.271 1336.52 256.748 1333.73 255.701C1330.93 254.742 1328.32 253.171 1325.88 250.99C1323.43 248.809 1321.16 246.279 1319.07 243.4C1316.98 240.434 1314.88 237.424 1312.79 234.371L1239.9 122.617V235.025C1239.9 242.354 1238.2 247.893 1234.8 251.645C1231.39 255.396 1227.03 257.271 1221.71 257.271C1216.21 257.271 1211.81 255.396 1208.49 251.645C1205.18 247.806 1203.52 242.266 1203.52 235.025V87.0234C1203.52 80.7422 1204.22 75.8132 1205.62 72.2363C1207.27 68.3105 1210.02 65.1263 1213.86 62.6836C1217.7 60.1536 1221.84 58.8887 1226.29 58.8887C1229.78 58.8887 1232.75 59.4557 1235.19 60.5898C1237.72 61.724 1239.9 63.2507 1241.73 65.1699C1243.65 67.0892 1245.57 69.5755 1247.49 72.6289C1249.5 75.6823 1251.55 78.8665 1253.64 82.1816ZM1533.03 92.127H1445.48V139.236H1526.09C1532.02 139.236 1536.43 140.589 1539.31 143.293C1542.27 145.91 1543.76 149.4 1543.76 153.762C1543.76 158.124 1542.32 161.701 1539.44 164.492C1536.56 167.197 1532.11 168.549 1526.09 168.549H1445.48V223.117H1536.04C1542.14 223.117 1546.72 224.557 1549.78 227.436C1552.92 230.227 1554.49 233.979 1554.49 238.689C1554.49 243.226 1552.92 246.934 1549.78 249.812C1546.72 252.604 1542.14 254 1536.04 254H1430.43C1421.97 254 1415.86 252.124 1412.11 248.373C1408.45 244.622 1406.62 238.559 1406.62 230.184V85.9766C1406.62 80.3932 1407.44 75.8568 1409.1 72.3672C1410.76 68.7904 1413.33 66.2168 1416.82 64.6465C1420.4 62.9889 1424.94 62.1602 1430.43 62.1602H1533.03C1539.22 62.1602 1543.8 63.556 1546.77 66.3477C1549.82 69.0521 1551.35 72.6289 1551.35 77.0781C1551.35 81.6146 1549.82 85.2786 1546.77 88.0703C1543.8 90.7747 1539.22 92.127 1533.03 92.127ZM1578.3 216.705L1621.22 154.023L1585.11 98.2773C1581.71 92.8685 1579.13 88.2448 1577.39 84.4062C1575.73 80.4805 1574.9 76.7292 1574.9 73.1523C1574.9 69.4883 1576.51 66.2168 1579.74 63.3379C1583.06 60.3717 1587.07 58.8887 1591.78 58.8887C1597.19 58.8887 1601.38 60.5026 1604.34 63.7305C1607.4 66.8711 1611.58 72.7598 1616.91 81.3965L1645.7 127.982L1676.45 81.3965C1678.98 77.4707 1681.11 74.112 1682.86 71.3203C1684.69 68.5286 1686.44 66.2168 1688.09 64.3848C1689.75 62.5527 1691.58 61.2005 1693.59 60.3281C1695.68 59.3685 1698.08 58.8887 1700.79 58.8887C1705.67 58.8887 1709.64 60.3717 1712.7 63.3379C1715.84 66.2168 1717.41 69.6628 1717.41 73.6758C1717.41 79.5208 1714.05 87.4596 1707.33 97.4922L1669.51 154.023L1710.21 216.705C1713.87 222.201 1716.53 226.781 1718.19 230.445C1719.85 234.022 1720.68 237.424 1720.68 240.652C1720.68 243.706 1719.94 246.497 1718.45 249.027C1716.97 251.557 1714.88 253.564 1712.17 255.047C1709.47 256.53 1706.41 257.271 1703.01 257.271C1699.35 257.271 1696.25 256.486 1693.72 254.916C1691.19 253.433 1689.14 251.557 1687.57 249.289C1686 247.021 1683.08 242.615 1678.8 236.072L1645.04 182.943L1609.19 237.643C1606.39 242.005 1604.39 245.058 1603.17 246.803C1602.03 248.548 1600.64 250.249 1598.98 251.906C1597.32 253.564 1595.36 254.872 1593.09 255.832C1590.82 256.792 1588.16 257.271 1585.11 257.271C1580.4 257.271 1576.47 255.832 1573.33 252.953C1570.28 250.074 1568.75 245.887 1568.75 240.391C1568.75 233.935 1571.93 226.04 1578.3 216.705ZM1740.31 216.705L1783.23 154.023L1747.11 98.2773C1743.71 92.8685 1741.14 88.2448 1739.39 84.4062C1737.73 80.4805 1736.9 76.7292 1736.9 73.1523C1736.9 69.4883 1738.52 66.2168 1741.75 63.3379C1745.06 60.3717 1749.07 58.8887 1753.79 58.8887C1759.19 58.8887 1763.38 60.5026 1766.35 63.7305C1769.4 66.8711 1773.59 72.7598 1778.91 81.3965L1807.7 127.982L1838.45 81.3965C1840.98 77.4707 1843.12 74.112 1844.86 71.3203C1846.7 68.5286 1848.44 66.2168 1850.1 64.3848C1851.76 62.5527 1853.59 61.2005 1855.59 60.3281C1857.69 59.3685 1860.09 58.8887 1862.79 58.8887C1867.68 58.8887 1871.65 60.3717 1874.7 63.3379C1877.84 66.2168 1879.41 69.6628 1879.41 73.6758C1879.41 79.5208 1876.05 87.4596 1869.33 97.4922L1831.52 154.023L1872.21 216.705C1875.88 222.201 1878.54 226.781 1880.2 230.445C1881.85 234.022 1882.68 237.424 1882.68 240.652C1882.68 243.706 1881.94 246.497 1880.46 249.027C1878.97 251.557 1876.88 253.564 1874.18 255.047C1871.47 256.53 1868.42 257.271 1865.02 257.271C1861.35 257.271 1858.25 256.486 1855.72 254.916C1853.19 253.433 1851.14 251.557 1849.57 249.289C1848 247.021 1845.08 242.615 1840.81 236.072L1807.04 182.943L1771.19 237.643C1768.4 242.005 1766.39 245.058 1765.17 246.803C1764.04 248.548 1762.64 250.249 1760.98 251.906C1759.32 253.564 1757.36 254.872 1755.09 255.832C1752.83 256.792 1750.16 257.271 1747.11 257.271C1742.4 257.271 1738.47 255.832 1735.33 252.953C1732.28 250.074 1730.75 245.887 1730.75 240.391C1730.75 233.935 1733.94 226.04 1740.31 216.705ZM2033.96 94.2207H1991.56V233.586C1991.56 241.612 1989.77 247.588 1986.19 251.514C1982.61 255.352 1977.99 257.271 1972.32 257.271C1966.56 257.271 1961.85 255.309 1958.19 251.383C1954.61 247.457 1952.82 241.525 1952.82 233.586V94.2207H1910.42C1903.79 94.2207 1898.86 92.7812 1895.64 89.9023C1892.41 86.9362 1890.79 83.054 1890.79 78.2559C1890.79 73.2832 1892.45 69.3574 1895.77 66.4785C1899.17 63.5996 1904.06 62.1602 1910.42 62.1602H2033.96C2040.67 62.1602 2045.65 63.6432 2048.87 66.6094C2052.19 69.5755 2053.85 73.4577 2053.85 78.2559C2053.85 83.054 2052.19 86.9362 2048.87 89.9023C2045.56 92.7812 2040.59 94.2207 2033.96 94.2207ZM1315.28 486.008V522.779C1315.28 527.665 1314.8 531.59 1313.84 534.557C1312.88 537.436 1311.09 540.053 1308.47 542.408C1305.94 544.764 1302.67 547.032 1298.66 549.213C1287.05 555.494 1275.89 560.074 1265.16 562.953C1254.43 565.832 1242.74 567.271 1230.09 567.271C1215.34 567.271 1201.91 565.003 1189.78 560.467C1177.65 555.93 1167.32 549.344 1158.77 540.707C1150.22 532.07 1143.63 521.602 1139.01 509.301C1134.47 497 1132.2 483.26 1132.2 468.08C1132.2 453.162 1134.43 439.509 1138.88 427.121C1143.33 414.733 1149.87 404.221 1158.51 395.584C1167.14 386.947 1177.65 380.361 1190.04 375.824C1202.43 371.201 1216.48 368.889 1232.18 368.889C1245.09 368.889 1256.52 370.633 1266.46 374.123C1276.41 377.525 1284.48 381.844 1290.67 387.078C1296.87 392.312 1301.54 397.852 1304.68 403.697C1307.82 409.542 1309.39 414.733 1309.39 419.27C1309.39 424.155 1307.55 428.342 1303.89 431.832C1300.31 435.234 1296 436.936 1290.94 436.936C1288.14 436.936 1285.44 436.281 1282.82 434.973C1280.29 433.664 1278.15 431.832 1276.41 429.477C1271.61 421.974 1267.56 416.303 1264.24 412.465C1260.93 408.626 1256.43 405.398 1250.76 402.781C1245.18 400.164 1238.02 398.855 1229.3 398.855C1220.32 398.855 1212.29 400.426 1205.22 403.566C1198.16 406.62 1192.09 411.113 1187.03 417.045C1182.06 422.89 1178.22 430.087 1175.52 438.637C1172.9 447.186 1171.59 456.652 1171.59 467.033C1171.59 489.541 1176.74 506.858 1187.03 518.984C1197.41 531.111 1211.85 537.174 1230.35 537.174C1239.33 537.174 1247.75 535.996 1255.6 533.641C1263.54 531.285 1271.57 527.926 1279.68 523.564V492.42H1249.58C1242.34 492.42 1236.85 491.329 1233.1 489.148C1229.43 486.967 1227.6 483.26 1227.6 478.025C1227.6 473.751 1229.13 470.217 1232.18 467.426C1235.32 464.634 1239.55 463.238 1244.87 463.238H1288.97C1294.38 463.238 1298.96 463.718 1302.71 464.678C1306.46 465.637 1309.47 467.775 1311.74 471.09C1314.1 474.405 1315.28 479.378 1315.28 486.008ZM1404.52 481.951H1390.91V543.586C1390.91 551.699 1389.12 557.675 1385.55 561.514C1381.97 565.352 1377.3 567.271 1371.54 567.271C1365.35 567.271 1360.55 565.265 1357.15 561.252C1353.75 557.239 1352.05 551.35 1352.05 543.586V395.977C1352.05 387.602 1353.92 381.538 1357.67 377.787C1361.43 374.036 1367.49 372.16 1375.86 372.16H1439.07C1447.79 372.16 1455.25 372.553 1461.45 373.338C1467.64 374.036 1473.22 375.519 1478.2 377.787C1484.21 380.317 1489.54 383.938 1494.16 388.648C1498.78 393.359 1502.27 398.855 1504.63 405.137C1507.07 411.331 1508.29 417.917 1508.29 424.896C1508.29 439.204 1504.24 450.632 1496.12 459.182C1488.1 467.731 1475.88 473.794 1459.48 477.371C1466.37 481.035 1472.96 486.444 1479.24 493.598C1485.52 500.751 1491.11 508.385 1495.99 516.498C1500.96 524.524 1504.8 531.809 1507.51 538.352C1510.3 544.807 1511.7 549.257 1511.7 551.699C1511.7 554.229 1510.87 556.759 1509.21 559.289C1507.64 561.732 1505.46 563.651 1502.67 565.047C1499.87 566.53 1496.65 567.271 1492.98 567.271C1488.62 567.271 1484.96 566.225 1481.99 564.131C1479.02 562.124 1476.45 559.551 1474.27 556.41C1472.18 553.27 1469.3 548.646 1465.63 542.539L1450.06 516.629C1444.48 507.12 1439.46 499.879 1435.01 494.906C1430.65 489.934 1426.2 486.531 1421.66 484.699C1417.13 482.867 1411.41 481.951 1404.52 481.951ZM1426.77 401.342H1390.91V454.078H1425.72C1435.06 454.078 1442.91 453.293 1449.28 451.723C1455.64 450.065 1460.49 447.317 1463.8 443.479C1467.2 439.553 1468.9 434.188 1468.9 427.383C1468.9 422.061 1467.55 417.394 1464.85 413.381C1462.14 409.281 1458.39 406.227 1453.59 404.221C1449.06 402.301 1440.12 401.342 1426.77 401.342ZM1629.6 368.889C1649.49 368.889 1666.55 372.945 1680.77 381.059C1695.07 389.085 1705.89 400.557 1713.22 415.475C1720.55 430.305 1724.21 447.753 1724.21 467.818C1724.21 482.649 1722.2 496.128 1718.19 508.254C1714.18 520.38 1708.16 530.893 1700.13 539.791C1692.11 548.689 1682.25 555.494 1670.56 560.205C1658.87 564.916 1645.48 567.271 1630.38 567.271C1615.38 567.271 1601.94 564.872 1590.08 560.074C1578.22 555.189 1568.31 548.34 1560.38 539.529C1552.44 530.718 1546.42 520.118 1542.32 507.73C1538.3 495.342 1536.3 481.951 1536.3 467.557C1536.3 452.813 1538.39 439.291 1542.58 426.99C1546.85 414.689 1553 404.221 1561.03 395.584C1569.06 386.947 1578.83 380.361 1590.34 375.824C1601.86 371.201 1614.94 368.889 1629.6 368.889ZM1684.82 467.557C1684.82 453.511 1682.55 441.341 1678.02 431.047C1673.48 420.753 1666.98 412.988 1658.52 407.754C1650.14 402.432 1640.5 399.771 1629.6 399.771C1621.84 399.771 1614.64 401.255 1608.01 404.221C1601.46 407.1 1595.79 411.331 1591 416.914C1586.29 422.497 1582.53 429.651 1579.74 438.375C1577.04 447.012 1575.69 456.739 1575.69 467.557C1575.69 478.462 1577.04 488.32 1579.74 497.131C1582.53 505.942 1586.42 513.27 1591.39 519.115C1596.45 524.873 1602.21 529.191 1608.66 532.07C1615.21 534.949 1622.36 536.389 1630.12 536.389C1640.07 536.389 1649.18 533.902 1657.47 528.93C1665.85 523.957 1672.48 516.28 1677.36 505.898C1682.34 495.517 1684.82 482.736 1684.82 467.557ZM1757.71 484.699V392.443C1757.71 384.592 1759.46 378.703 1762.95 374.777C1766.52 370.852 1771.19 368.889 1776.95 368.889C1782.97 368.889 1787.72 370.852 1791.21 374.777C1794.79 378.703 1796.58 384.592 1796.58 392.443V486.793C1796.58 497.523 1797.75 506.509 1800.11 513.75C1802.55 520.904 1806.83 526.487 1812.93 530.5C1819.04 534.426 1827.59 536.389 1838.58 536.389C1853.76 536.389 1864.49 532.376 1870.77 524.35C1877.05 516.236 1880.2 503.979 1880.2 487.578V392.443C1880.2 384.505 1881.94 378.616 1885.43 374.777C1888.92 370.852 1893.59 368.889 1899.43 368.889C1905.28 368.889 1909.99 370.852 1913.56 374.777C1917.23 378.616 1919.06 384.505 1919.06 392.443V484.699C1919.06 499.704 1917.58 512.223 1914.61 522.256C1911.73 532.288 1906.24 541.1 1898.12 548.689C1891.14 555.145 1883.03 559.856 1873.78 562.822C1864.54 565.788 1853.72 567.271 1841.33 567.271C1826.59 567.271 1813.89 565.701 1803.25 562.561C1792.61 559.333 1783.93 554.404 1777.21 547.773C1770.49 541.056 1765.56 532.507 1762.42 522.125C1759.28 511.656 1757.71 499.181 1757.71 484.699ZM2035.53 489.279H1999.93V543.586C1999.93 551.35 1998.1 557.239 1994.44 561.252C1990.77 565.265 1986.15 567.271 1980.56 567.271C1974.72 567.271 1970.01 565.309 1966.43 561.383C1962.85 557.37 1961.07 551.525 1961.07 543.848V395.977C1961.07 387.427 1963.03 381.32 1966.96 377.656C1970.88 373.992 1977.12 372.16 1985.67 372.16H2035.53C2050.27 372.16 2061.61 373.294 2069.55 375.562C2077.4 377.743 2084.16 381.364 2089.83 386.424C2095.59 391.484 2099.95 397.678 2102.92 405.006C2105.88 412.334 2107.37 420.578 2107.37 429.738C2107.37 449.28 2101.35 464.111 2089.31 474.23C2077.27 484.263 2059.34 489.279 2035.53 489.279ZM2026.1 401.342H1999.93V459.967H2026.1C2035.26 459.967 2042.9 459.007 2049 457.088C2055.2 455.169 2059.91 452.028 2063.14 447.666C2066.36 443.304 2067.98 437.59 2067.98 430.523C2067.98 422.061 2065.49 415.169 2060.52 409.848C2054.94 404.177 2043.46 401.342 2026.1 401.342Z" fill="black"/>
</svg>
