<svg width="1065" height="790" viewBox="0 0 1065 790" fill="none" xmlns="http://www.w3.org/2000/svg">
<path d="M325.855 334.162C296.011 353.005 264.27 352.349 237.114 338.891C220.99 330.894 206.437 318.351 194.958 302.629C167.247 264.725 185.776 200.749 225.527 174.074C230.607 170.609 236.119 167.792 241.929 165.693C256.32 160.598 269.81 157.808 282.575 157.696C308.275 157.531 330.948 167.998 351.941 191.221C363.329 203.816 376.209 215.129 389.947 226.785C393.87 230.124 397.035 234.231 399.237 238.84C401.439 243.449 402.63 248.458 402.732 253.545C402.835 258.632 401.847 263.684 399.832 268.374C397.817 273.064 394.82 277.29 391.034 280.778L390.738 281.05C369.63 300.584 349.144 319.486 325.855 334.162ZM1032.79 0.646138C944.168 0.646138 855.549 -0.666003 766.971 1.07762C709.223 2.20063 657.467 22.2552 615.383 62.187C588.892 87.2242 563.875 113.822 534.974 142.973C507.087 114.507 482.832 88.1581 456.854 63.5524C414.964 24.0047 363.268 2.82123 305.822 1.33177C212.647 -1.1625 119.346 0.575206 26.1044 0.770255C18.5286 0.770255 11.0012 2.07649 0 3.13449C44.4457 48.6045 95.5006 62.8313 152.845 62.057C199.447 61.466 246.43 58.5698 292.658 63.0559C324.423 66.1708 361.861 72.0281 385.09 90.5874C446.209 139.421 660.886 351.835 670.057 360.919C686.737 377.67 704.565 390.07 723.915 398.227C723.437 398.89 722.906 399.514 722.326 400.095C667.067 454.596 612.254 509.783 553.998 561.111C544.573 569.385 512.168 566.779 501.475 557.251C446.783 508.784 395.148 457.09 343.967 405.018C342.565 403.647 341.29 402.276 340.082 400.881C357.209 394.095 386.431 371.168 386.431 371.168L431.946 327.755L475.787 287.09C475.787 287.09 543.516 354.406 581.945 392.783C584.275 395.108 586.103 397.868 587.319 400.899C588.535 403.931 589.114 407.17 589.021 410.425C588.929 413.68 588.167 416.884 586.781 419.844C585.395 422.804 583.413 425.461 580.954 427.656C571.258 436.303 559.888 446.274 550.198 454.974C545.318 459.358 538.935 461.79 532.31 461.79C525.685 461.79 519.301 459.358 514.421 454.974C508.151 449.353 501.535 443.443 495.331 437.893C493.128 435.925 491.348 433.547 490.095 430.899C488.842 428.251 488.141 425.384 488.033 422.468C487.925 419.551 488.412 416.643 489.466 413.913C490.52 411.183 492.119 408.685 494.171 406.567C505.504 394.84 518.016 382.026 523.773 375.915C507.601 360.157 493.47 346.362 480.669 333.997C460.31 353.224 439.274 373.196 418.413 392.913C416.284 394.926 414.581 397.33 413.403 399.988C412.225 402.646 411.595 405.505 411.549 408.402C411.503 411.298 412.042 414.175 413.135 416.868C414.228 419.56 415.853 422.015 417.918 424.092C450.716 457.09 483.448 490.012 516.826 523.614C519.284 526.087 522.223 528.056 525.469 529.403C528.715 530.75 532.204 531.449 535.73 531.459C539.257 531.469 542.749 530.789 546.004 529.461C549.258 528.132 552.208 526.18 554.681 523.72C589.466 489.114 622.059 456.493 655.244 424.499C667.786 412.353 666.191 403.812 654.096 393.043C628.946 370.5 422.926 165.693 401.534 145.828C364.869 111.694 322.025 89.5294 271.091 94.447C186.929 102.674 113.776 161.845 119.95 262.414C123.514 320.532 158.342 375.217 216.006 398.517C236.248 406.824 257.916 411.304 279.863 411.721C314.817 457.563 360.145 495.994 401.147 537.415C438.392 574.918 476.524 611.605 513.328 649.409C526.824 663.304 537.263 665.858 551.714 650.721C574.568 626.736 599.084 604.193 622.699 580.834C656.192 547.818 690.507 515.493 722.592 481.235C744.752 457.628 769.835 434.955 790.019 409.977C798.081 409.732 806.121 409.01 814.093 407.814C910.675 393.735 978.477 298.125 941.105 198.715C898.134 84.2985 755.523 61.8088 673.331 142.163C650.979 164.085 629.23 186.575 607.179 208.746C576.556 182.024 576.556 182.024 604.509 157.732C616.217 147.518 629.526 138.552 639.331 126.778C665.913 94.8607 699.816 72.2764 740.305 68.4759C802.887 62.6185 866.302 64.5513 929.264 61.5014C952.825 60.3193 976.888 56.8912 999.295 50.0999C1024.67 42.3748 1048.13 29.3597 1065 0.646138H1032.79ZM725.891 180.032C744.733 162.218 772.747 155.208 799.872 158.417V158.482C814.572 160.186 828.704 165.057 841.249 172.744C848.955 177.531 855.86 183.455 861.717 190.305C891.953 226.495 891.259 280.187 866.109 311.081C856.29 323.243 843.595 332.884 829.118 339.174V339.233C801.425 351.445 769.146 350.464 743.235 334.068C730.941 326.295 698.487 298.084 674.884 277.574C671.494 274.627 668.757 271.031 666.842 267.01C664.926 262.988 663.872 258.625 663.745 254.19C663.617 249.755 664.419 245.341 666.101 241.22C667.783 237.1 670.31 233.36 673.525 230.231C690.44 213.781 704.746 200.028 725.854 180.032H725.891Z" fill="white"/>

</svg>
